<?xml version="1.0" standalone="no"?>
<!DOCTYPE svg PUBLIC "-//W3C//DTD SVG 20010904//EN"
 "http://www.w3.org/TR/2001/REC-SVG-20010904/DTD/svg10.dtd">
<svg version="1.0" xmlns="http://www.w3.org/2000/svg"
 width="512.000000pt" height="512.000000pt" viewBox="0 0 512.000000 512.000000"
 preserveAspectRatio="xMidYMid meet">
<metadata>
Created by potrace 1.14, written by Peter Selinger 2001-2017
</metadata>
<g transform="translate(0.000000,512.000000) scale(0.100000,-0.100000)"
fill="#000000" stroke="none">
<path d="M2314 4635 c-59 -14 -124 -46 -166 -83 -48 -42 -116 -141 -134 -194
-15 -47 -17 -48 -57 -49 -104 -1 -200 -29 -262 -74 -21 -16 -50 -24 -98 -27
-134 -11 -266 -107 -318 -232 -12 -31 -30 -58 -38 -61 -24 -8 -79 -62 -106
-105 -14 -22 -41 -47 -62 -57 -21 -10 -59 -38 -86 -64 -26 -25 -59 -52 -74
-60 -43 -23 -74 -81 -80 -147 -4 -47 2 -90 30 -208 20 -82 57 -234 82 -339 26
-104 53 -217 60 -250 8 -33 24 -100 35 -150 12 -49 23 -98 25 -108 2 -10 7
-27 10 -37 3 -10 7 -27 9 -37 2 -10 9 -38 16 -63 7 -25 13 -52 15 -60 2 -9 22
-94 45 -190 23 -96 43 -181 45 -190 2 -8 19 -80 39 -160 77 -318 108 -446 112
-465 2 -11 17 -72 32 -135 30 -125 24 -117 127 -161 28 -12 64 -27 80 -34 17
-7 131 -56 255 -109 124 -53 234 -100 245 -105 62 -27 128 -56 291 -125 l181
-77 424 181 c233 100 438 187 454 195 17 7 84 36 151 64 l121 52 18 77 c10 42
20 82 21 87 1 6 28 116 59 245 31 129 74 312 96 405 22 94 49 206 60 250 12
44 22 87 24 95 5 22 40 168 74 310 16 69 44 184 61 255 54 224 110 455 142
585 34 139 39 188 25 241 -13 52 -61 106 -105 120 -32 9 -41 19 -70 79 -53
112 -152 196 -258 216 -51 10 -131 12 -170 3 -30 -6 -32 -5 -48 46 -45 143
-197 267 -336 274 -12 1 -15 12 -14 49 7 158 -100 287 -271 327 -93 22 -157 6
-238 -58 -35 -27 -41 -29 -65 -17 -15 8 -46 14 -70 15 -23 2 -68 14 -100 28
-75 34 -173 47 -238 32z m129 -159 c21 -4 60 -20 86 -37 41 -25 55 -28 93 -23
85 12 138 -43 138 -140 0 -35 -5 -46 -30 -64 -16 -12 -48 -47 -71 -78 -31 -40
-46 -53 -58 -48 -9 4 -44 9 -78 10 -52 2 -72 -2 -117 -25 -54 -27 -55 -27 -97
-11 -57 23 -118 75 -136 117 -50 121 32 272 163 301 41 9 44 9 107 -2z m619
-12 c53 -27 94 -117 85 -185 -3 -21 -15 -54 -27 -74 l-22 -36 -39 35 c-49 45
-102 67 -161 68 -43 0 -47 2 -50 26 -5 42 10 115 30 141 34 46 120 58 184 25z
m-997 -316 c1 -2 18 -28 39 -60 39 -59 77 -93 145 -129 35 -18 40 -25 35 -43
-7 -21 -6 -94 1 -106 2 -3 -16 -12 -41 -18 -37 -10 -51 -9 -80 3 -44 18 -118
25 -155 15 -26 -8 -27 -7 -33 44 -9 72 -62 162 -124 213 -58 47 -56 56 25 78
40 12 180 13 188 3z m930 -38 c65 -63 86 -166 54 -254 -23 -62 -43 -83 -91
-98 -34 -10 -45 -9 -71 5 -30 17 -77 75 -77 97 0 5 -6 10 -12 11 -72 4 -100
28 -94 82 6 43 42 110 78 144 69 65 155 70 213 13z m331 -9 c53 -14 126 -79
153 -134 20 -41 28 -78 15 -64 -8 8 -64 -12 -96 -35 -16 -11 -40 -21 -55 -24
-43 -7 -95 -25 -132 -46 -52 -30 -62 -19 -40 44 23 68 23 129 -1 198 -10 30
-16 58 -12 62 19 18 101 18 168 -1z m-1617 -66 c69 -35 117 -113 127 -208 8
-71 -7 -116 -59 -175 -81 -94 -98 -196 -49 -284 15 -25 18 -39 10 -44 -6 -4
-15 2 -21 12 -6 10 -32 42 -59 70 -96 102 -207 135 -322 96 l-59 -20 -64 64
-64 64 26 10 c14 5 39 10 54 10 23 0 27 5 29 31 6 71 59 130 119 131 l40 0 -2
46 c-9 154 159 267 294 197z m868 -68 c3 -4 7 -25 9 -47 4 -51 37 -111 72
-133 l27 -16 -25 -9 c-14 -6 -43 -22 -64 -37 -34 -23 -40 -25 -48 -11 -11 20
-93 76 -111 76 -7 0 -19 11 -25 25 -38 82 26 170 116 161 24 -2 46 -6 49 -9z
m1011 -202 c37 -31 43 -52 28 -96 -10 -29 -9 -41 6 -74 29 -65 24 -80 -27
-100 -43 -16 -144 -103 -177 -152 l-14 -22 -47 24 c-37 18 -61 23 -112 22 -74
-2 -80 4 -91 97 -16 138 90 259 229 260 31 0 57 3 57 6 0 4 9 19 21 34 28 35
85 36 127 1z m270 13 c52 -13 119 -74 138 -126 11 -29 10 -31 -41 -73 -29 -24
-61 -57 -71 -72 -11 -16 -25 -26 -34 -23 -89 29 -88 28 -100 81 -7 27 -11 75
-11 106 1 30 -3 67 -8 81 -7 19 -7 28 2 32 22 8 78 6 125 -6z m-1710 -97 c12
-6 25 -18 30 -26 7 -14 14 -13 56 6 60 26 120 31 166 12 104 -42 120 -141 39
-244 -37 -46 -40 -54 -30 -76 7 -14 10 -26 9 -27 -2 -1 -27 -17 -55 -35 -29
-18 -69 -55 -88 -81 l-36 -49 -63 62 c-80 79 -156 124 -232 138 -84 16 -82 15
-104 51 -24 38 -22 93 4 133 21 32 73 65 103 65 14 0 28 10 37 28 28 54 106
74 164 43z m683 -26 c44 -23 99 -27 151 -12 40 13 48 13 61 -1 13 -13 14 -20
1 -61 -19 -65 -17 -138 6 -206 19 -56 19 -60 3 -69 -10 -5 -50 -40 -88 -77
l-71 -68 -34 46 c-68 91 -170 140 -294 142 l-38 1 25 33 c29 38 57 115 57 157
0 37 43 88 95 111 49 23 87 24 126 4z m-1321 -315 c82 -42 153 -180 175 -340
3 -25 8 -56 10 -70 3 -14 9 -56 15 -95 5 -38 11 -79 14 -90 2 -11 7 -45 11
-75 4 -30 8 -62 10 -70 1 -8 6 -37 9 -63 4 -27 9 -57 11 -66 2 -10 6 -42 10
-72 3 -30 8 -61 10 -69 3 -8 7 -32 10 -54 8 -69 16 -120 25 -176 5 -30 12 -71
14 -90 3 -19 12 -84 21 -145 9 -60 19 -123 21 -140 2 -16 7 -41 9 -55 3 -14 7
-41 9 -60 3 -19 9 -64 15 -100 6 -36 13 -87 16 -115 4 -27 8 -57 10 -65 2 -8
7 -35 10 -60 3 -25 8 -56 10 -70 2 -14 7 -45 10 -70 3 -25 10 -67 15 -95 5
-27 11 -69 14 -92 l5 -42 -102 46 c-56 25 -125 56 -153 68 -58 25 -53 14 -79
175 -19 112 -23 138 -29 166 -2 12 -7 39 -10 60 -4 22 -18 102 -31 179 -13 77
-27 156 -30 175 -3 19 -10 53 -15 75 -5 22 -12 63 -15 90 -4 28 -8 57 -10 65
-2 8 -7 31 -10 50 -3 19 -12 71 -20 115 -8 44 -17 94 -20 110 -2 17 -7 39 -9
50 -2 11 -7 40 -11 65 -4 25 -9 52 -10 61 -2 9 -6 32 -9 50 -7 47 -35 210 -41
239 -23 117 -78 446 -82 487 -12 119 81 172 197 113z m2261 9 c35 -18 52 -67
45 -133 -3 -34 -7 -71 -10 -82 -5 -26 -17 -91 -21 -119 -1 -11 -19 -114 -39
-230 -21 -115 -39 -219 -41 -230 -5 -33 -14 -81 -44 -255 -16 -91 -32 -185
-36 -210 -3 -25 -11 -64 -16 -88 -5 -23 -12 -59 -15 -80 -2 -20 -9 -59 -14
-87 -5 -27 -12 -66 -15 -85 -14 -89 -26 -159 -35 -200 -5 -25 -12 -58 -14 -75
-12 -74 -26 -162 -30 -180 -2 -11 -11 -67 -21 -125 -10 -58 -21 -112 -26 -121
-5 -9 -52 -36 -106 -59 -54 -24 -121 -53 -149 -66 l-51 -22 19 121 c21 143 25
167 33 227 3 25 9 59 11 75 3 17 7 42 9 58 6 38 45 307 50 337 3 14 9 57 14
95 11 77 12 83 40 270 11 72 23 150 26 175 3 25 10 70 15 100 6 30 12 75 16
100 3 25 9 70 14 100 5 30 12 75 15 100 3 25 8 56 10 70 3 14 7 39 9 55 2 17
7 50 11 75 4 25 8 56 10 70 19 142 36 206 73 279 64 127 176 187 263 140z
m-1116 -175 c49 -20 84 -53 109 -103 44 -86 49 -149 31 -456 -3 -66 -8 -163
-10 -215 -3 -88 -11 -249 -20 -415 -2 -38 -7 -135 -10 -215 -4 -80 -8 -174
-10 -210 -2 -36 -7 -128 -11 -205 -3 -77 -7 -167 -9 -200 -2 -33 -6 -136 -10
-229 -4 -94 -9 -177 -10 -185 -2 -9 -4 -19 -4 -24 -1 -9 -109 -58 -131 -59 -8
-1 -35 8 -60 19 -25 11 -53 23 -62 26 -13 4 -18 18 -19 44 -1 21 -2 54 -4 73
-1 19 -5 107 -9 195 -4 87 -9 186 -11 220 -3 56 -8 151 -20 430 -3 61 -8 148
-10 195 -3 47 -7 139 -10 205 -3 66 -7 156 -10 200 -2 44 -7 145 -10 225 -3
80 -8 170 -10 200 -22 288 16 425 135 480 51 23 135 25 185 4z"/>
</g>
</svg>
