<?xml version="1.0" standalone="no"?>
<!DOCTYPE svg PUBLIC "-//W3C//DTD SVG 20010904//EN"
 "http://www.w3.org/TR/2001/REC-SVG-20010904/DTD/svg10.dtd">
<svg version="1.0" xmlns="http://www.w3.org/2000/svg"
 width="1024.000000pt" height="1024.000000pt" viewBox="0 0 1024.000000 1024.000000"
 preserveAspectRatio="xMidYMid meet">
<metadata>
Created by potrace 1.14, written by Peter Selinger 2001-2017
</metadata>
<g transform="translate(0.000000,1024.000000) scale(0.100000,-0.100000)"
fill="#000000" stroke="none">
<path d="M4658 9279 c-208 -31 -394 -156 -540 -364 -56 -80 -81 -129 -117
-233 l-26 -73 -98 -1 c-109 -1 -239 -25 -337 -63 -65 -25 -168 -84 -203 -116
-13 -12 -39 -16 -104 -17 -142 -2 -288 -49 -410 -133 -61 -42 -160 -141 -202
-203 -36 -52 -101 -186 -101 -209 0 -8 -27 -31 -59 -51 -79 -49 -158 -129
-206 -211 -35 -60 -45 -70 -102 -97 -90 -42 -168 -105 -244 -194 -14 -17 -36
-34 -50 -37 -48 -12 -117 -75 -153 -140 -71 -129 -72 -234 -2 -522 101 -418
163 -678 222 -922 48 -203 174 -730 244 -1018 46 -188 65 -269 75 -315 3 -14
17 -72 111 -460 20 -80 37 -152 39 -161 2 -9 8 -33 13 -53 6 -20 8 -36 6 -36
-3 0 0 -8 5 -17 5 -10 11 -31 14 -48 6 -33 71 -309 87 -365 8 -31 107 -443
115 -480 2 -8 14 -62 28 -120 14 -58 39 -161 56 -230 66 -276 83 -345 85 -355
2 -5 6 -27 10 -47 5 -21 13 -41 20 -46 6 -5 178 -80 381 -167 204 -86 388
-166 410 -175 22 -10 148 -64 280 -120 132 -57 258 -111 280 -120 22 -10 148
-64 280 -120 132 -56 258 -110 280 -120 76 -35 374 -160 380 -160 5 0 968 410
1080 460 22 10 105 46 185 80 80 34 165 70 189 81 24 11 65 29 91 39 26 10 67
28 91 39 24 11 172 74 329 141 156 67 296 128 310 135 27 14 22 -1 115 390 19
83 38 161 42 175 3 14 7 30 8 35 2 6 13 51 25 100 12 50 23 97 25 105 2 8 22
92 45 185 22 94 43 182 45 198 2 15 6 31 9 35 4 6 34 131 61 252 3 14 19 77
115 475 17 72 33 137 35 145 15 67 76 322 80 332 2 7 6 24 9 38 2 14 16 72 31
129 14 58 30 123 35 145 10 50 15 70 28 121 6 22 13 51 16 65 3 14 19 81 36
150 17 69 33 134 36 145 2 11 18 78 35 148 17 71 32 136 34 145 2 10 26 110
54 224 28 114 53 217 55 230 3 13 17 70 31 128 14 58 32 132 40 165 8 33 37
152 64 265 27 113 52 216 55 230 2 14 12 56 21 95 31 129 11 281 -48 370 -47
72 -125 123 -209 139 -31 6 -38 11 -43 39 -19 90 -136 278 -224 360 -155 145
-328 205 -561 193 -69 -3 -139 -8 -155 -12 -26 -5 -31 -2 -32 14 -3 44 -55
169 -100 245 -53 88 -161 205 -236 256 -99 67 -220 111 -349 128 -26 3 -45 10
-42 14 12 19 5 199 -10 262 -52 222 -249 407 -502 472 -70 18 -232 26 -289 14
-74 -16 -162 -68 -247 -147 l-46 -43 -62 33 c-56 29 -71 32 -149 33 -79 0 -92
3 -156 37 -142 74 -324 108 -467 87z m248 -333 c62 -19 136 -58 186 -97 l37
-30 83 12 c107 16 161 2 222 -56 54 -53 75 -118 72 -234 -1 -79 -3 -84 -31
-108 -96 -79 -165 -161 -241 -281 -1 -2 -31 5 -66 16 -76 23 -169 27 -246 11
-57 -11 -164 -59 -189 -84 -10 -11 -23 -11 -74 1 -136 32 -275 139 -326 251
-35 79 -37 207 -4 302 52 150 173 266 320 306 57 16 189 11 257 -9z m1160 6
c98 -28 192 -136 221 -255 11 -45 12 -165 2 -202 -10 -35 -85 -165 -95 -165
-3 0 -18 15 -35 34 -45 52 -156 123 -232 150 -54 19 -86 23 -153 22 -96 -3
-85 -15 -89 109 -5 170 60 280 185 315 36 10 148 5 196 -8z m-1996 -660 c64
-17 65 -18 101 -82 72 -128 226 -263 350 -307 l50 -18 -8 -35 c-4 -19 -8 -83
-7 -142 0 -91 -2 -108 -15 -108 -9 0 -45 -11 -81 -23 l-65 -23 -80 35 c-67 29
-95 36 -171 39 -64 3 -107 0 -145 -11 -29 -9 -54 -15 -55 -14 -1 1 -5 29 -8
62 -10 92 -19 126 -53 209 -50 121 -143 232 -252 303 l-54 36 61 29 c134 62
309 83 432 50z m1826 -9 c59 -20 136 -94 176 -169 76 -142 78 -324 3 -459 -54
-96 -113 -141 -204 -152 -92 -11 -180 52 -245 176 l-35 67 -48 3 c-57 3 -106
24 -133 58 -45 57 6 226 102 339 115 135 249 183 384 137z m750 -86 c109 -37
205 -109 275 -207 45 -64 87 -179 66 -181 -7 -1 -21 -3 -33 -4 -48 -5 -128
-40 -176 -76 -29 -21 -63 -39 -75 -39 -30 0 -23 1 -105 -21 -78 -22 -167 -61
-210 -92 -23 -17 -31 -18 -57 -7 -29 12 -30 14 -17 39 78 154 79 378 1 530
l-25 50 43 15 c61 22 73 23 162 20 51 -2 105 -12 151 -27z m-3329 -101 c87
-19 184 -89 242 -174 72 -107 92 -168 97 -298 6 -148 -28 -236 -132 -344 -84
-86 -137 -227 -133 -350 2 -67 36 -172 73 -226 24 -36 25 -40 9 -51 -9 -7 -19
-13 -22 -13 -3 0 -22 23 -41 52 -48 72 -173 195 -245 243 -69 46 -154 82 -222
94 -107 20 -260 -4 -353 -56 l-45 -25 -25 33 c-45 59 -143 159 -193 197 l-48
37 43 18 c24 10 71 19 105 21 34 1 64 4 67 6 2 3 7 22 10 42 18 116 34 154 85
211 43 48 98 70 173 71 l66 1 -5 85 c-6 100 10 166 58 242 93 145 271 220 436
184z m1815 -166 c25 -12 27 -18 27 -65 -1 -63 25 -158 54 -200 29 -42 86 -92
120 -106 l29 -12 -62 -29 c-61 -27 -162 -93 -168 -110 -6 -15 -17 -8 -83 55
-60 57 -134 103 -197 122 -34 10 -55 61 -55 135 -1 97 46 169 137 212 46 21
150 20 198 -2z m1940 -354 c129 -14 193 -122 149 -252 -19 -57 -19 -60 -1
-104 39 -97 53 -136 57 -166 4 -29 1 -31 -39 -43 -134 -40 -318 -189 -405
-327 -16 -24 -31 -44 -36 -44 -4 0 -25 11 -45 25 -77 51 -147 68 -273 69
l-117 0 -21 42 c-46 96 -51 256 -12 367 49 140 172 255 315 293 58 16 163 18
198 5 22 -8 25 -6 37 34 7 24 22 52 34 63 25 24 86 51 101 47 6 -2 32 -6 58
-9z m654 -21 c95 -36 158 -88 218 -180 28 -45 70 -136 63 -140 -1 -1 -22 -15
-47 -30 -47 -29 -175 -152 -226 -217 l-29 -37 -70 34 c-38 19 -80 35 -93 35
-24 0 -28 7 -36 55 -8 58 -27 127 -40 154 -11 20 -12 38 -5 76 14 70 9 152
-12 208 -13 35 -14 49 -6 52 60 19 219 13 283 -10z m-3471 -175 c35 -12 75
-46 100 -83 17 -27 17 -27 44 -8 99 70 276 101 384 65 94 -31 167 -106 183
-190 24 -117 -17 -224 -132 -344 l-53 -56 24 -49 c13 -28 25 -55 25 -60 0 -6
-23 -21 -52 -35 -101 -48 -193 -132 -269 -245 l-44 -64 -29 37 c-50 63 -180
187 -247 234 -127 91 -257 143 -386 154 -62 5 -71 9 -100 41 -51 56 -68 100
-68 173 1 137 106 245 266 275 28 5 39 15 59 52 30 55 60 79 130 103 53 18
111 18 165 0z m1381 -64 c125 -62 249 -67 369 -16 l48 21 32 -31 32 -31 -25
-77 c-21 -66 -25 -97 -25 -217 l-1 -140 38 -93 c21 -52 36 -95 34 -96 -88 -55
-231 -181 -320 -283 l-37 -42 -40 62 c-139 214 -354 326 -618 322 -40 0 -73 2
-73 5 0 3 13 21 29 40 74 90 120 207 128 320 6 91 28 130 109 194 103 81 233
106 320 62z m-2687 -603 c88 -26 168 -91 235 -192 38 -57 78 -125 81 -141 1
-3 11 -26 22 -51 39 -86 74 -240 98 -429 3 -25 8 -56 10 -70 6 -34 13 -76 20
-130 3 -25 12 -85 20 -135 8 -49 17 -108 20 -130 3 -22 10 -67 15 -100 5 -33
12 -82 16 -110 3 -27 7 -52 9 -55 2 -3 6 -34 10 -70 4 -36 9 -67 10 -70 2 -3
6 -28 9 -55 4 -28 8 -61 11 -74 2 -14 9 -59 15 -100 6 -42 12 -87 15 -101 2
-14 6 -43 9 -65 4 -22 8 -51 11 -65 2 -14 7 -43 10 -65 6 -41 39 -268 50 -340
3 -22 12 -80 20 -130 7 -49 16 -106 19 -125 41 -284 68 -464 76 -505 5 -27 12
-70 15 -95 4 -37 33 -233 50 -340 2 -14 7 -45 10 -70 3 -25 13 -88 22 -140 8
-52 15 -102 15 -110 0 -8 4 -31 8 -50 5 -19 11 -57 14 -85 3 -27 17 -124 31
-215 14 -91 27 -178 30 -195 2 -16 13 -91 24 -165 11 -74 19 -135 18 -136 -1
-1 -140 60 -309 135 l-306 136 -7 43 c-4 24 -8 54 -11 65 -6 30 -8 42 -48 277
-30 174 -48 275 -80 455 -3 17 -8 46 -11 65 -3 19 -16 96 -30 170 -13 74 -42
243 -65 375 -22 132 -45 260 -50 285 -5 25 -12 61 -14 80 -3 19 -8 46 -11 60
-2 13 -7 40 -10 60 -3 20 -7 45 -9 55 -2 11 -7 40 -11 65 -4 25 -9 54 -11 65
-5 23 -53 295 -60 340 -2 17 -13 80 -24 140 -35 194 -58 325 -94 535 -19 113
-38 219 -41 235 -2 17 -7 41 -10 55 -7 34 -12 63 -25 145 -6 39 -15 90 -20
115 -5 25 -12 61 -14 80 -3 19 -8 46 -11 60 -3 14 -8 41 -11 60 -3 19 -17 98
-30 175 -14 77 -27 149 -28 160 -2 11 -8 43 -12 70 -15 85 -10 206 9 242 57
107 171 147 306 106z m4541 7 c86 -23 150 -115 152 -218 0 -31 -14 -138 -31
-237 -17 -99 -34 -196 -37 -215 -3 -19 -7 -42 -9 -50 -2 -8 -7 -31 -10 -50 -3
-19 -10 -60 -15 -90 -5 -30 -12 -68 -14 -85 -11 -66 -37 -212 -41 -235 -7 -33
-12 -66 -20 -115 -3 -22 -7 -47 -10 -55 -2 -8 -6 -33 -10 -55 -3 -22 -12 -76
-20 -120 -8 -44 -17 -93 -20 -110 -3 -16 -7 -41 -10 -55 -2 -14 -9 -54 -15
-90 -5 -36 -12 -76 -15 -90 -12 -66 -37 -208 -41 -235 -4 -26 -12 -70 -39
-220 -2 -16 -8 -50 -11 -75 -3 -25 -8 -48 -10 -51 -1 -3 -6 -28 -9 -55 -4 -27
-11 -67 -15 -89 -5 -22 -12 -56 -15 -75 -3 -19 -10 -60 -15 -90 -5 -30 -12
-71 -15 -90 -13 -81 -26 -158 -36 -205 -9 -47 -61 -347 -73 -425 -3 -19 -8
-46 -11 -60 -6 -30 -6 -27 -45 -259 -32 -185 -35 -204 -45 -251 -2 -14 -7 -38
-9 -55 -18 -109 -27 -163 -31 -185 -6 -28 -11 -58 -19 -110 -3 -19 -8 -46 -11
-60 -3 -14 -10 -52 -15 -85 -6 -33 -13 -70 -15 -81 -4 -17 -52 -42 -237 -124
-128 -56 -266 -117 -305 -136 -44 -20 -73 -28 -73 -21 0 10 9 74 34 242 3 17
8 53 12 80 3 28 7 52 9 55 2 3 6 34 10 70 4 36 8 67 10 70 2 3 7 33 10 65 4
33 9 69 11 80 2 11 7 40 10 65 3 25 7 52 9 60 3 16 22 144 30 195 2 17 7 50
10 75 4 25 8 56 11 70 4 23 38 253 50 340 3 19 9 60 14 90 5 30 12 75 15 100
6 48 23 158 30 201 3 14 7 41 9 60 3 19 17 113 31 209 15 96 28 186 30 200 8
64 16 116 20 130 2 8 7 40 10 70 3 30 8 62 10 70 2 8 7 38 10 66 3 28 7 59 9
70 2 10 7 39 11 64 4 25 9 52 10 60 1 8 6 40 10 70 4 30 9 62 10 70 1 8 6 40
10 70 4 30 9 63 11 73 3 18 21 138 31 207 2 19 13 91 23 160 11 69 22 148 26
175 3 28 7 52 9 55 2 3 6 30 10 60 3 30 13 96 20 145 8 50 17 110 20 135 3 25
8 52 10 60 2 8 7 42 10 75 27 258 177 550 331 648 78 49 186 68 264 47z
m-2230 -357 c124 -37 210 -113 267 -233 79 -168 89 -305 58 -810 -2 -36 -7
-126 -10 -200 -3 -74 -8 -171 -10 -215 -2 -44 -7 -138 -10 -210 -3 -71 -8
-164 -10 -205 -3 -41 -7 -127 -10 -190 -6 -123 -12 -256 -19 -410 -3 -52 -8
-153 -11 -225 -4 -71 -8 -168 -10 -215 -3 -47 -7 -134 -10 -195 -3 -60 -7
-159 -10 -220 -7 -156 -14 -295 -20 -405 -3 -52 -7 -147 -10 -210 -3 -63 -7
-151 -9 -195 -7 -123 -16 -316 -31 -645 -4 -90 -11 -149 -18 -156 -7 -7 -46
-26 -87 -44 -88 -37 -139 -60 -160 -71 -10 -5 -41 4 -85 25 -39 18 -100 45
-137 61 l-68 28 -1 46 c0 25 -2 75 -4 111 -2 36 -6 135 -10 220 -3 85 -8 180
-10 210 -2 30 -7 118 -10 195 -4 77 -8 174 -10 215 -2 41 -6 134 -9 205 -4 72
-8 168 -11 215 -3 47 -7 130 -10 185 -7 178 -16 358 -20 430 -2 39 -7 126 -10
195 -3 69 -8 163 -10 210 -2 47 -7 144 -10 215 -3 72 -8 171 -10 220 -3 50 -7
142 -10 205 -3 63 -7 156 -10 205 -6 104 -14 269 -20 405 -2 52 -7 154 -11
225 -4 72 -8 157 -10 190 -5 120 -5 331 1 370 42 264 149 415 329 466 73 20
211 21 276 2z"/>
</g>
</svg>
