<?xml version="1.0" standalone="no"?>
<!DOCTYPE svg PUBLIC "-//W3C//DTD SVG 20010904//EN"
 "http://www.w3.org/TR/2001/REC-SVG-20010904/DTD/svg10.dtd">
<svg version="1.0" xmlns="http://www.w3.org/2000/svg"
 width="1024.000000pt" height="1024.000000pt" viewBox="0 0 1024.000000 1024.000000"
 preserveAspectRatio="xMidYMid meet">
<metadata>
Created by potrace 1.14, written by Peter Selinger 2001-2017
</metadata>
<g transform="translate(0.000000,1024.000000) scale(0.100000,-0.100000)"
fill="#000000" stroke="none">
<path d="M5010 8800 c-41 -11 -99 -32 -128 -46 -120 -59 -251 -191 -310 -314
-33 -70 -36 -83 -40 -185 -3 -102 6 -165 32 -225 5 -12 -10 -19 -71 -34 -209
-50 -379 -177 -471 -353 -42 -81 -72 -178 -72 -233 0 -37 2 -37 -97 4 -113 48
-272 46 -408 -5 -72 -27 -172 -119 -181 -168 -4 -18 -13 -31 -22 -31 -26 0
-165 -151 -199 -216 -45 -84 -67 -196 -61 -305 l5 -86 -54 -44 c-30 -24 -59
-51 -64 -60 -20 -39 -22 -29 144 -864 81 -404 233 -1181 256 -1310 36 -194
119 -614 166 -835 49 -226 87 -417 186 -925 92 -474 130 -654 150 -720 36
-117 151 -251 234 -273 l30 -8 3 -107 3 -107 -462 3 -461 2 -19 -24 c-39 -47
-10 -119 57 -141 28 -10 532 -11 2172 -6 2351 6 2163 0 2197 67 15 28 15 33
-2 62 l-19 32 -170 8 c-93 5 -310 6 -483 3 l-314 -6 7 53 c3 28 6 77 6 107 l0
55 45 19 c61 25 141 98 171 158 42 83 80 250 218 968 25 129 59 303 76 385 17
83 100 499 185 925 85 426 169 840 185 920 17 80 80 390 140 690 60 300 122
607 139 682 17 76 31 146 31 156 0 10 -26 49 -59 88 l-58 69 10 74 c15 108 -2
205 -55 311 -85 170 -261 307 -443 345 -88 18 -208 18 -259 0 -38 -13 -41 -13
-73 13 -34 27 -34 28 -36 118 -2 82 -5 97 -40 166 -61 125 -198 247 -335 298
-79 31 -207 52 -269 46 -45 -4 -53 -2 -53 12 0 32 -49 90 -110 130 -33 22 -56
43 -50 47 15 9 12 51 -9 132 -26 99 -51 146 -123 231 -99 117 -241 211 -373
248 -37 10 -111 18 -190 20 -107 3 -143 0 -205 -16z m364 -190 c79 -25 203
-106 251 -164 56 -69 78 -129 70 -192 -5 -46 -3 -59 19 -97 15 -24 25 -55 24
-68 -3 -21 5 -26 57 -44 50 -17 63 -27 82 -60 34 -61 30 -79 -24 -109 l-46
-26 -26 24 c-14 13 -41 27 -58 31 -28 6 -37 2 -64 -25 -32 -31 -32 -31 -25
-111 3 -43 5 -79 2 -79 -2 0 -23 9 -47 20 -95 43 -224 14 -301 -66 -43 -45
-43 -46 -98 -40 -65 6 -201 70 -244 115 -27 28 -28 32 -19 83 12 71 9 80 -33
103 -51 27 -112 99 -148 175 -27 56 -31 76 -31 145 1 74 4 86 39 150 46 85
132 170 210 208 119 59 274 69 410 27z m-674 -795 c31 -32 32 -37 21 -59 -10
-18 -11 -32 -3 -55 15 -44 67 -116 100 -140 59 -42 177 -94 264 -116 55 -13
94 -29 100 -39 19 -34 128 -13 128 24 0 5 16 12 36 16 30 6 39 13 51 43 26 66
84 92 180 80 30 -4 32 -7 38 -57 4 -29 12 -58 19 -65 11 -9 5 -19 -29 -49 -48
-42 -75 -91 -75 -135 0 -25 -6 -33 -37 -47 -21 -9 -49 -25 -62 -35 -23 -18
-23 -18 -85 46 -50 51 -68 63 -93 63 -41 0 -96 -54 -130 -128 -21 -45 -23 -57
-13 -86 6 -18 19 -41 29 -50 23 -21 116 -57 125 -49 3 4 6 -17 6 -45 l0 -52
-108 0 c-139 0 -248 -26 -362 -87 -128 -69 -186 -112 -286 -215 -80 -81 -205
-238 -217 -272 -2 -6 -31 12 -63 40 -122 104 -265 182 -375 203 -35 7 -80 17
-101 23 -32 9 -40 8 -70 -13 -75 -52 -123 -97 -200 -186 l-80 -95 -30 28 c-44
43 -155 213 -182 280 -68 168 -24 331 116 439 26 19 53 35 61 35 8 0 19 18 26
39 17 59 83 137 128 152 63 23 226 17 308 -10 l71 -24 -4 -63 -4 -64 47 0 c37
0 56 6 83 26 42 33 86 123 84 175 -2 53 42 200 85 281 42 81 133 170 215 211
31 16 93 35 139 43 45 8 85 16 87 19 12 12 30 3 62 -30z m1591 -28 c80 -27
167 -79 215 -128 48 -49 68 -127 59 -230 -7 -76 -7 -77 25 -113 18 -20 43 -39
56 -42 13 -3 24 -10 24 -15 0 -5 14 -16 30 -24 17 -9 28 -20 25 -25 -3 -6 0
-7 8 -4 9 3 28 -15 53 -53 32 -49 38 -66 37 -108 0 -29 -9 -69 -22 -96 -23
-48 -107 -129 -134 -129 -9 0 -43 13 -77 29 -119 57 -253 62 -280 11 -20 -37
-12 -87 18 -117 34 -33 133 -84 181 -92 30 -5 34 -10 36 -41 2 -19 6 -47 10
-61 6 -22 3 -27 -17 -32 -12 -4 -32 -7 -44 -7 -37 0 -120 -29 -159 -55 -20
-14 -38 -25 -39 -23 -1 2 -11 23 -22 48 -53 113 -179 221 -241 205 -37 -9 -81
-42 -88 -65 -4 -11 -10 -20 -15 -20 -5 0 -62 36 -127 79 -113 76 -239 137
-308 148 -30 5 -33 9 -39 50 -6 48 8 92 41 131 21 23 131 84 169 94 19 5 22
14 26 84 5 95 25 134 69 134 36 0 74 40 97 103 9 26 20 47 25 47 4 0 -2 10
-14 23 -80 85 -32 212 106 280 72 35 72 35 165 36 63 0 102 -5 151 -22z m828
-618 c158 -50 267 -167 317 -342 28 -96 30 -127 7 -193 -14 -42 -41 -73 -177
-206 -89 -87 -164 -158 -167 -158 -3 0 -29 29 -58 65 -119 147 -172 185 -257
185 -30 0 -32 2 -38 48 -3 26 -9 59 -12 73 -5 24 -2 28 28 34 47 11 117 59
158 111 67 83 104 233 81 324 -5 19 -12 47 -15 61 l-6 26 51 -8 c28 -4 67 -13
88 -20z m-2047 -488 c-15 -9 -16 61 12 -1536 12 -741 37 -3384 32 -3391 -1 -1
-76 -4 -167 -8 l-166 -6 -7 107 c-8 140 -15 400 -21 798 -3 176 -10 469 -15
650 -6 182 -15 569 -20 860 -6 292 -15 674 -20 850 -5 176 -14 466 -20 645 -5
179 -10 440 -10 581 l0 257 53 39 c82 62 130 90 219 127 74 31 166 51 130 27z
m493 -73 c87 -44 255 -163 255 -182 0 -6 0 -229 0 -496 0 -452 -5 -789 -30
-2125 -5 -286 -12 -821 -15 -1190 -3 -368 -8 -712 -10 -762 l-5 -93 26 0 c15
0 25 -2 23 -4 -2 -3 -89 -7 -192 -9 l-187 -4 0 2443 c0 1343 3 2450 6 2458 8
21 24 16 129 -36z m1986 -230 c-49 -179 -110 -465 -256 -1198 -41 -206 -86
-427 -100 -490 -13 -63 -47 -234 -75 -380 -28 -146 -66 -335 -85 -420 -19 -85
-46 -218 -61 -295 -57 -306 -205 -1040 -243 -1210 -22 -99 -52 -238 -66 -310
-41 -201 -49 -201 -46 -5 2 107 9 158 61 470 16 96 36 231 45 300 9 69 24 175
35 235 10 61 26 173 35 250 10 77 30 232 46 345 17 113 41 288 54 390 32 250
71 507 101 671 13 74 38 223 54 330 56 375 101 655 127 799 15 80 28 171 28
203 1 53 4 60 31 77 16 10 97 86 179 168 83 81 151 147 153 146 2 -1 -6 -35
-17 -76z m-4450 -14 c34 -47 94 -119 134 -160 l72 -74 7 -101 c7 -118 14 -151
29 -142 6 3 7 1 3 -5 -4 -6 5 -104 19 -217 14 -113 30 -271 35 -352 15 -216
59 -652 90 -893 10 -80 22 -181 25 -225 3 -44 15 -149 26 -234 30 -225 19
-244 -20 -36 -19 99 -67 347 -108 550 -40 204 -91 465 -113 580 -22 116 -55
287 -74 380 -19 94 -44 224 -55 290 -12 66 -46 242 -77 390 -65 319 -68 335
-61 335 3 0 34 -39 68 -86z m789 -12 c39 -15 142 -81 211 -135 l77 -59 4 -143
c2 -79 7 -147 11 -151 4 -4 14 1 22 12 14 18 15 17 4 -8 -9 -20 -7 -85 5 -270
8 -133 21 -337 26 -453 6 -115 22 -381 35 -590 24 -367 39 -625 50 -825 6
-106 20 -330 35 -550 6 -80 19 -311 30 -515 34 -643 53 -904 64 -898 8 4 8 2
0 -6 -6 -7 -63 -13 -156 -16 l-145 -5 -6 63 c-3 34 -12 136 -21 227 -8 91 -25
269 -37 395 -31 340 -46 499 -69 710 -21 203 -42 429 -65 720 -8 99 -21 241
-30 315 -8 74 -24 245 -35 380 -12 135 -28 313 -36 395 -21 220 -52 642 -94
1260 -5 77 -10 155 -10 172 l0 33 58 -26 c31 -14 64 -29 72 -32z m700 24 c0
-2 -8 -10 -17 -17 -16 -13 -17 -12 -4 4 13 16 21 21 21 13z m2036 -13 c-11
-39 -68 -610 -86 -863 -24 -320 -74 -1134 -95 -1525 -25 -473 -35 -653 -45
-825 -5 -91 -17 -316 -25 -500 -8 -184 -19 -429 -25 -545 -5 -115 -11 -243
-12 -282 l-2 -73 -47 0 c-25 0 -81 -3 -123 -7 l-78 -6 6 199 c13 428 17 550
31 849 8 171 17 393 20 495 3 102 8 228 10 280 4 85 13 417 23 865 2 88 8 250
12 360 5 110 14 360 20 555 6 195 16 411 21 480 5 69 12 169 16 222 l6 98 41
38 c73 68 162 131 237 167 83 39 103 43 95 18z m-3036 -182 c-5 -11 -15 -23
-21 -27 -6 -3 -3 5 6 20 20 30 30 35 15 7z m2425 -20 c3 -5 2 -12 -3 -15 -5
-3 -9 1 -9 9 0 17 3 19 12 6z m-2579 -173 c4 -7 4 -10 -1 -6 -8 7 -52 -41 -48
-53 1 -3 -4 -6 -12 -6 -8 0 -2 15 18 39 34 43 33 42 43 26z m1671 -10 c-3 -8
-6 -5 -6 6 -1 11 2 17 5 13 3 -3 4 -12 1 -19z m-817 -17 c-5 -11 -15 -23 -21
-27 -6 -3 -3 5 6 20 20 30 30 35 15 7z m1887 -1253 c-3 -8 -6 -5 -6 6 -1 11 2
17 5 13 3 -3 4 -12 1 -19z m-10 -260 c-3 -7 -5 -2 -5 12 0 14 2 19 5 13 2 -7
2 -19 0 -25z m0 -70 c-3 -8 -6 -5 -6 6 -1 11 2 17 5 13 3 -3 4 -12 1 -19z
m-2490 -1180 c-3 -8 -6 -5 -6 6 -1 11 2 17 5 13 3 -3 4 -12 1 -19z m20 -110
c-3 -8 -6 -5 -6 6 -1 11 2 17 5 13 3 -3 4 -12 1 -19z m80 -400 c-3 -8 -6 -5
-6 6 -1 11 2 17 5 13 3 -3 4 -12 1 -19z m40 -200 c-3 -8 -6 -5 -6 6 -1 11 2
17 5 13 3 -3 4 -12 1 -19z m10 -50 c-3 -7 -5 -2 -5 12 0 14 2 19 5 13 2 -7 2
-19 0 -25z m10 -50 c-3 -8 -6 -5 -6 6 -1 11 2 17 5 13 3 -3 4 -12 1 -19z m10
-40 c-3 -8 -6 -5 -6 6 -1 11 2 17 5 13 3 -3 4 -12 1 -19z m10 -60 c-3 -7 -5
-2 -5 12 0 14 2 19 5 13 2 -7 2 -19 0 -25z m10 -40 c-3 -8 -6 -5 -6 6 -1 11 2
17 5 13 3 -3 4 -12 1 -19z m117 -434 c3 -8 2 -12 -4 -9 -6 3 -10 10 -10 16 0
14 7 11 14 -7z m559 -51 c-13 -2 -33 -2 -45 0 -13 2 -3 4 22 4 25 0 35 -2 23
-4z m205 0 c-15 -2 -42 -2 -60 0 -18 2 -6 4 27 4 33 0 48 -2 33 -4z m615 0
c-34 -2 -93 -2 -130 0 -37 2 -9 3 62 3 72 0 102 -1 68 -3z m680 0 c-23 -2 -64
-2 -90 0 -26 2 -7 3 42 3 50 0 71 -1 48 -3z m325 -292 c-1 -55 -5 -102 -8
-105 -3 -3 -491 -7 -1083 -8 l-1077 -3 0 108 0 107 1086 0 1086 0 -4 -99z"/>
<path d="M5631 8154 c-1 -12 6 -28 16 -35 15 -13 15 -12 6 6 -6 11 -13 27 -16
35 -4 10 -6 8 -6 -6z"/>
<path d="M5698 8073 c7 -3 16 -2 19 1 4 3 -2 6 -13 5 -11 0 -14 -3 -6 -6z"/>
<path d="M4520 7231 c-191 -78 -336 -244 -360 -410 -16 -112 11 -225 59 -251
53 -28 126 -5 148 47 15 36 14 40 -6 77 -20 37 -20 40 -4 103 9 36 30 86 47
111 37 55 131 122 213 151 92 33 108 44 111 75 6 47 -7 75 -41 96 -40 25 -107
25 -167 1z"/>
<path d="M27 103 c-25 -4 -27 -8 -27 -54 0 -48 1 -49 30 -49 30 0 30 1 30 55
0 30 -1 54 -2 54 -2 -1 -15 -4 -31 -6z"/>
</g>
</svg>
